<svg id="Layer_1" data-name="Layer 1" xmlns="http://www.w3.org/2000/svg" xmlns:xlink="http://www.w3.org/1999/xlink" viewBox="0 0 1920 1080"><defs><style>.cls-1{fill:url(#linear-gradient);}.cls-2{fill:url(#linear-gradient-2);}.cls-3{fill:url(#linear-gradient-3);}.cls-4{fill:url(#linear-gradient-4);}.cls-5{fill:#fff;}.cls-6{font-size:82.22px;}.cls-6,.cls-9{fill:#ccc;font-family:MyriadPro-Regular, Myriad Pro;}.cls-7{letter-spacing:-0.04em;}.cls-8{letter-spacing:0em;}.cls-9{font-size:106.18px;}</style><linearGradient id="linear-gradient" x1="787.08" y1="376.14" x2="1032.19" y2="376.14" gradientUnits="userSpaceOnUse"><stop offset="0.02"/><stop offset="0.98" stop-color="#ff15f9"/></linearGradient><linearGradient id="linear-gradient-2" x1="942.14" y1="264.5" x2="1033.8" y2="264.5" gradientUnits="userSpaceOnUse"><stop offset="0.18" stop-color="#250633"/><stop offset="0.22" stop-color="#2c0639"/><stop offset="0.38" stop-color="#1d052b"/><stop offset="0.98" stop-color="#ff15f9"/></linearGradient><linearGradient id="linear-gradient-3" x1="1130.02" y1="518.46" x2="1271.44" y2="518.46" gradientUnits="userSpaceOnUse"><stop offset="0.18" stop-color="#250633"/><stop offset="0.26" stop-color="#1d052b"/><stop offset="0.98" stop-color="#ff15f9"/></linearGradient><linearGradient id="linear-gradient-4" x1="599.73" y1="520.07" x2="736.49" y2="520.07" xlink:href="#linear-gradient"/></defs><path class="cls-1" d="M1032.19,579.87c-29.93,0-56.82.43-83.66-.47-3.9-.13-9-5.9-11.15-10.25Q875.13,442.21,813.52,314.94c-8.28-17-16.81-34-24.7-51.17-1.59-3.47-2.52-9-.88-11.94,14.44-26.15,29.52-51.94,45.39-79.53Z"/><path class="cls-2" d="M942.14,166.73h91.66v195l-1.73.6C1002.41,297.78,972.75,233.28,942.14,166.73Z"/><path class="cls-3" d="M1271.44,579.8H1130l70.76-122.68Z"/><path class="cls-4" d="M599.73,579.37c23.2-40.15,45.38-78.52,68.54-118.61l68.22,118.61Z"/><path class="cls-5" d="M675.59,994.13v-1.69"/><text class="cls-6" transform="translate(442.17 751.04) scale(0.92 1)"><tspan xml:space="preserve">A  P </tspan><tspan class="cls-7" x="146.34" y="0"> </tspan><tspan class="cls-8" x="160.4" y="0" xml:space="preserve">T  O  S    L  A  U  N  C  H  E  R </tspan></text><text/><text class="cls-9" transform="translate(599.73 885.13) scale(20.42 1)">-</text></svg>